<svg xmlns="http://www.w3.org/2000/svg" version="1.1" xmlns:xlink="http://www.w3.org/1999/xlink" xmlns:svgjs="http://svgjs.dev/svgjs" viewBox="0 0 800 800" opacity="0.15" width="800" height="800"><g stroke-width="1.5" stroke="hsl(46, 97%, 65%)" fill="none"><line x1="0" y1="0" x2="53.333333333333336" y2="53.333333333333336"></line><line x1="53.333333333333336" y1="0" x2="0" y2="53.333333333333336"></line><line x1="53.333333333333336" y1="0" x2="106.66666666666667" y2="53.333333333333336"></line><line x1="106.66666666666667" y1="0" x2="53.333333333333336" y2="53.333333333333336"></line><line x1="106.66666666666667" y1="0" x2="160" y2="53.333333333333336"></line><line x1="160" y1="0" x2="106.66666666666667" y2="53.333333333333336"></line><line x1="160" y1="0" x2="213.33333333333334" y2="53.333333333333336"></line><line x1="213.33333333333334" y1="0" x2="160" y2="53.333333333333336"></line><line x1="213.33333333333334" y1="0" x2="266.6666666666667" y2="53.333333333333336"></line><line x1="266.6666666666667" y1="0" x2="213.33333333333334" y2="53.333333333333336"></line><line x1="266.6666666666667" y1="0" x2="320" y2="53.333333333333336"></line><line x1="320" y1="0" x2="266.6666666666667" y2="53.333333333333336"></line><line x1="320" y1="0" x2="373.3333333333333" y2="53.333333333333336"></line><line x1="373.3333333333333" y1="0" x2="320" y2="53.333333333333336"></line><line x1="373.3333333333333" y1="0" x2="426.66666666666663" y2="53.333333333333336"></line><line x1="426.66666666666663" y1="0" x2="373.3333333333333" y2="53.333333333333336"></line><line x1="426.66666666666663" y1="0" x2="479.99999999999994" y2="53.333333333333336"></line><line x1="479.99999999999994" y1="0" x2="426.66666666666663" y2="53.333333333333336"></line><line x1="479.99999999999994" y1="0" x2="533.3333333333333" y2="53.333333333333336"></line><line x1="533.3333333333333" y1="0" x2="479.99999999999994" y2="53.333333333333336"></line><line x1="533.3333333333333" y1="0" x2="586.6666666666666" y2="53.333333333333336"></line><line x1="586.6666666666666" y1="0" x2="533.3333333333333" y2="53.333333333333336"></line><line x1="586.6666666666666" y1="0" x2="640" y2="53.333333333333336"></line><line x1="640" y1="0" x2="586.6666666666666" y2="53.333333333333336"></line><line x1="640" y1="0" x2="693.3333333333334" y2="53.333333333333336"></line><line x1="693.3333333333334" y1="0" x2="640" y2="53.333333333333336"></line><line x1="693.3333333333334" y1="0" x2="746.6666666666667" y2="53.333333333333336"></line><line x1="746.6666666666667" y1="0" x2="693.3333333333334" y2="53.333333333333336"></line><line x1="746.6666666666667" y1="0" x2="800.0000000000001" y2="53.333333333333336"></line><line x1="800.0000000000001" y1="0" x2="746.6666666666667" y2="53.333333333333336"></line><line x1="800.0000000000001" y1="0" x2="853.3333333333335" y2="53.333333333333336"></line><line x1="853.3333333333335" y1="0" x2="800.0000000000001" y2="53.333333333333336"></line><line x1="0" y1="53.333333333333336" x2="53.333333333333336" y2="106.66666666666667"></line><line x1="53.333333333333336" y1="53.333333333333336" x2="0" y2="106.66666666666667"></line><line x1="53.333333333333336" y1="53.333333333333336" x2="106.66666666666667" y2="106.66666666666667"></line><line x1="106.66666666666667" y1="53.333333333333336" x2="53.333333333333336" y2="106.66666666666667"></line><line x1="106.66666666666667" y1="53.333333333333336" x2="160" y2="106.66666666666667"></line><line x1="160" y1="53.333333333333336" x2="106.66666666666667" y2="106.66666666666667"></line><line x1="160" y1="53.333333333333336" x2="213.33333333333334" y2="106.66666666666667"></line><line x1="213.33333333333334" y1="53.333333333333336" x2="160" y2="106.66666666666667"></line><line x1="213.33333333333334" y1="53.333333333333336" x2="266.6666666666667" y2="106.66666666666667"></line><line x1="266.6666666666667" y1="53.333333333333336" x2="213.33333333333334" y2="106.66666666666667"></line><line x1="266.6666666666667" y1="53.333333333333336" x2="320" y2="106.66666666666667"></line><line x1="320" y1="53.333333333333336" x2="266.6666666666667" y2="106.66666666666667"></line><line x1="320" y1="53.333333333333336" x2="373.3333333333333" y2="106.66666666666667"></line><line x1="373.3333333333333" y1="53.333333333333336" x2="320" y2="106.66666666666667"></line><line x1="373.3333333333333" y1="53.333333333333336" x2="426.66666666666663" y2="106.66666666666667"></line><line x1="426.66666666666663" y1="53.333333333333336" x2="373.3333333333333" y2="106.66666666666667"></line><line x1="426.66666666666663" y1="53.333333333333336" x2="479.99999999999994" y2="106.66666666666667"></line><line x1="479.99999999999994" y1="53.333333333333336" x2="426.66666666666663" y2="106.66666666666667"></line><line x1="479.99999999999994" y1="53.333333333333336" x2="533.3333333333333" y2="106.66666666666667"></line><line x1="533.3333333333333" y1="53.333333333333336" x2="479.99999999999994" y2="106.66666666666667"></line><line x1="533.3333333333333" y1="53.333333333333336" x2="586.6666666666666" y2="106.66666666666667"></line><line x1="586.6666666666666" y1="53.333333333333336" x2="533.3333333333333" y2="106.66666666666667"></line><line x1="586.6666666666666" y1="53.333333333333336" x2="640" y2="106.66666666666667"></line><line x1="640" y1="53.333333333333336" x2="586.6666666666666" y2="106.66666666666667"></line><line x1="640" y1="53.333333333333336" x2="693.3333333333334" y2="106.66666666666667"></line><line x1="693.3333333333334" y1="53.333333333333336" x2="640" y2="106.66666666666667"></line><line x1="693.3333333333334" y1="53.333333333333336" x2="746.6666666666667" y2="106.66666666666667"></line><line x1="746.6666666666667" y1="53.333333333333336" x2="693.3333333333334" y2="106.66666666666667"></line><line x1="746.6666666666667" y1="53.333333333333336" x2="800.0000000000001" y2="106.66666666666667"></line><line x1="800.0000000000001" y1="53.333333333333336" x2="746.6666666666667" y2="106.66666666666667"></line><line x1="800.0000000000001" y1="53.333333333333336" x2="853.3333333333335" y2="106.66666666666667"></line><line x1="853.3333333333335" y1="53.333333333333336" x2="800.0000000000001" y2="106.66666666666667"></line><line x1="0" y1="106.66666666666667" x2="53.333333333333336" y2="160"></line><line x1="53.333333333333336" y1="106.66666666666667" x2="0" y2="160"></line><line x1="53.333333333333336" y1="106.66666666666667" x2="106.66666666666667" y2="160"></line><line x1="106.66666666666667" y1="106.66666666666667" x2="53.333333333333336" y2="160"></line><line x1="106.66666666666667" y1="106.66666666666667" x2="160" y2="160"></line><line x1="160" y1="106.66666666666667" x2="106.66666666666667" y2="160"></line><line x1="160" y1="106.66666666666667" x2="213.33333333333334" y2="160"></line><line x1="213.33333333333334" y1="106.66666666666667" x2="160" y2="160"></line><line x1="213.33333333333334" y1="106.66666666666667" x2="266.6666666666667" y2="160"></line><line x1="266.6666666666667" y1="106.66666666666667" x2="213.33333333333334" y2="160"></line><line x1="266.6666666666667" y1="106.66666666666667" x2="320" y2="160"></line><line x1="320" y1="106.66666666666667" x2="266.6666666666667" y2="160"></line><line x1="320" y1="106.66666666666667" x2="373.3333333333333" y2="160"></line><line x1="373.3333333333333" y1="106.66666666666667" x2="320" y2="160"></line><line x1="373.3333333333333" y1="106.66666666666667" x2="426.66666666666663" y2="160"></line><line x1="426.66666666666663" y1="106.66666666666667" x2="373.3333333333333" y2="160"></line><line x1="426.66666666666663" y1="106.66666666666667" x2="479.99999999999994" y2="160"></line><line x1="479.99999999999994" y1="106.66666666666667" x2="426.66666666666663" y2="160"></line><line x1="479.99999999999994" y1="106.66666666666667" x2="533.3333333333333" y2="160"></line><line x1="533.3333333333333" y1="106.66666666666667" x2="479.99999999999994" y2="160"></line><line x1="533.3333333333333" y1="106.66666666666667" x2="586.6666666666666" y2="160"></line><line x1="586.6666666666666" y1="106.66666666666667" x2="533.3333333333333" y2="160"></line><line x1="586.6666666666666" y1="106.66666666666667" x2="640" y2="160"></line><line x1="640" y1="106.66666666666667" x2="586.6666666666666" y2="160"></line><line x1="640" y1="106.66666666666667" x2="693.3333333333334" y2="160"></line><line x1="693.3333333333334" y1="106.66666666666667" x2="640" y2="160"></line><line x1="693.3333333333334" y1="106.66666666666667" x2="746.6666666666667" y2="160"></line><line x1="746.6666666666667" y1="106.66666666666667" x2="693.3333333333334" y2="160"></line><line x1="746.6666666666667" y1="106.66666666666667" x2="800.0000000000001" y2="160"></line><line x1="800.0000000000001" y1="106.66666666666667" x2="746.6666666666667" y2="160"></line><line x1="800.0000000000001" y1="106.66666666666667" x2="853.3333333333335" y2="160"></line><line x1="853.3333333333335" y1="106.66666666666667" x2="800.0000000000001" y2="160"></line><line x1="0" y1="160" x2="53.333333333333336" y2="213.33333333333334"></line><line x1="53.333333333333336" y1="160" x2="0" y2="213.33333333333334"></line><line x1="53.333333333333336" y1="160" x2="106.66666666666667" y2="213.33333333333334"></line><line x1="106.66666666666667" y1="160" x2="53.333333333333336" y2="213.33333333333334"></line><line x1="106.66666666666667" y1="160" x2="160" y2="213.33333333333334"></line><line x1="160" y1="160" x2="106.66666666666667" y2="213.33333333333334"></line><line x1="160" y1="160" x2="213.33333333333334" y2="213.33333333333334"></line><line x1="213.33333333333334" y1="160" x2="160" y2="213.33333333333334"></line><line x1="213.33333333333334" y1="160" x2="266.6666666666667" y2="213.33333333333334"></line><line x1="266.6666666666667" y1="160" x2="213.33333333333334" y2="213.33333333333334"></line><line x1="266.6666666666667" y1="160" x2="320" y2="213.33333333333334"></line><line x1="320" y1="160" x2="266.6666666666667" y2="213.33333333333334"></line><line x1="320" y1="160" x2="373.3333333333333" y2="213.33333333333334"></line><line x1="373.3333333333333" y1="160" x2="320" y2="213.33333333333334"></line><line x1="373.3333333333333" y1="160" x2="426.66666666666663" y2="213.33333333333334"></line><line x1="426.66666666666663" y1="160" x2="373.3333333333333" y2="213.33333333333334"></line><line x1="426.66666666666663" y1="160" x2="479.99999999999994" y2="213.33333333333334"></line><line x1="479.99999999999994" y1="160" x2="426.66666666666663" y2="213.33333333333334"></line><line x1="479.99999999999994" y1="160" x2="533.3333333333333" y2="213.33333333333334"></line><line x1="533.3333333333333" y1="160" x2="479.99999999999994" y2="213.33333333333334"></line><line x1="533.3333333333333" y1="160" x2="586.6666666666666" y2="213.33333333333334"></line><line x1="586.6666666666666" y1="160" x2="533.3333333333333" y2="213.33333333333334"></line><line x1="586.6666666666666" y1="160" x2="640" y2="213.33333333333334"></line><line x1="640" y1="160" x2="586.6666666666666" y2="213.33333333333334"></line><line x1="640" y1="160" x2="693.3333333333334" y2="213.33333333333334"></line><line x1="693.3333333333334" y1="160" x2="640" y2="213.33333333333334"></line><line x1="693.3333333333334" y1="160" x2="746.6666666666667" y2="213.33333333333334"></line><line x1="746.6666666666667" y1="160" x2="693.3333333333334" y2="213.33333333333334"></line><line x1="746.6666666666667" y1="160" x2="800.0000000000001" y2="213.33333333333334"></line><line x1="800.0000000000001" y1="160" x2="746.6666666666667" y2="213.33333333333334"></line><line x1="800.0000000000001" y1="160" x2="853.3333333333335" y2="213.33333333333334"></line><line x1="853.3333333333335" y1="160" x2="800.0000000000001" y2="213.33333333333334"></line><line x1="0" y1="213.33333333333334" x2="53.333333333333336" y2="266.6666666666667"></line><line x1="53.333333333333336" y1="213.33333333333334" x2="0" y2="266.6666666666667"></line><line x1="53.333333333333336" y1="213.33333333333334" x2="106.66666666666667" y2="266.6666666666667"></line><line x1="106.66666666666667" y1="213.33333333333334" x2="53.333333333333336" y2="266.6666666666667"></line><line x1="106.66666666666667" y1="213.33333333333334" x2="160" y2="266.6666666666667"></line><line x1="160" y1="213.33333333333334" x2="106.66666666666667" y2="266.6666666666667"></line><line x1="160" y1="213.33333333333334" x2="213.33333333333334" y2="266.6666666666667"></line><line x1="213.33333333333334" y1="213.33333333333334" x2="160" y2="266.6666666666667"></line><line x1="213.33333333333334" y1="213.33333333333334" x2="266.6666666666667" y2="266.6666666666667"></line><line x1="266.6666666666667" y1="213.33333333333334" x2="213.33333333333334" y2="266.6666666666667"></line><line x1="266.6666666666667" y1="213.33333333333334" x2="320" y2="266.6666666666667"></line><line x1="320" y1="213.33333333333334" x2="266.6666666666667" y2="266.6666666666667"></line><line x1="320" y1="213.33333333333334" x2="373.3333333333333" y2="266.6666666666667"></line><line x1="373.3333333333333" y1="213.33333333333334" x2="320" y2="266.6666666666667"></line><line x1="373.3333333333333" y1="213.33333333333334" x2="426.66666666666663" y2="266.6666666666667"></line><line x1="426.66666666666663" y1="213.33333333333334" x2="373.3333333333333" y2="266.6666666666667"></line><line x1="426.66666666666663" y1="213.33333333333334" x2="479.99999999999994" y2="266.6666666666667"></line><line x1="479.99999999999994" y1="213.33333333333334" x2="426.66666666666663" y2="266.6666666666667"></line><line x1="479.99999999999994" y1="213.33333333333334" x2="533.3333333333333" y2="266.6666666666667"></line><line x1="533.3333333333333" y1="213.33333333333334" x2="479.99999999999994" y2="266.6666666666667"></line><line x1="533.3333333333333" y1="213.33333333333334" x2="586.6666666666666" y2="266.6666666666667"></line><line x1="586.6666666666666" y1="213.33333333333334" x2="533.3333333333333" y2="266.6666666666667"></line><line x1="586.6666666666666" y1="213.33333333333334" x2="640" y2="266.6666666666667"></line><line x1="640" y1="213.33333333333334" x2="586.6666666666666" y2="266.6666666666667"></line><line x1="640" y1="213.33333333333334" x2="693.3333333333334" y2="266.6666666666667"></line><line x1="693.3333333333334" y1="213.33333333333334" x2="640" y2="266.6666666666667"></line><line x1="693.3333333333334" y1="213.33333333333334" x2="746.6666666666667" y2="266.6666666666667"></line><line x1="746.6666666666667" y1="213.33333333333334" x2="693.3333333333334" y2="266.6666666666667"></line><line x1="746.6666666666667" y1="213.33333333333334" x2="800.0000000000001" y2="266.6666666666667"></line><line x1="800.0000000000001" y1="213.33333333333334" x2="746.6666666666667" y2="266.6666666666667"></line><line x1="800.0000000000001" y1="213.33333333333334" x2="853.3333333333335" y2="266.6666666666667"></line><line x1="853.3333333333335" y1="213.33333333333334" x2="800.0000000000001" y2="266.6666666666667"></line><line x1="0" y1="266.6666666666667" x2="53.333333333333336" y2="320"></line><line x1="53.333333333333336" y1="266.6666666666667" x2="0" y2="320"></line><line x1="53.333333333333336" y1="266.6666666666667" x2="106.66666666666667" y2="320"></line><line x1="106.66666666666667" y1="266.6666666666667" x2="53.333333333333336" y2="320"></line><line x1="106.66666666666667" y1="266.6666666666667" x2="160" y2="320"></line><line x1="160" y1="266.6666666666667" x2="106.66666666666667" y2="320"></line><line x1="160" y1="266.6666666666667" x2="213.33333333333334" y2="320"></line><line x1="213.33333333333334" y1="266.6666666666667" x2="160" y2="320"></line><line x1="213.33333333333334" y1="266.6666666666667" x2="266.6666666666667" y2="320"></line><line x1="266.6666666666667" y1="266.6666666666667" x2="213.33333333333334" y2="320"></line><line x1="266.6666666666667" y1="266.6666666666667" x2="320" y2="320"></line><line x1="320" y1="266.6666666666667" x2="266.6666666666667" y2="320"></line><line x1="320" y1="266.6666666666667" x2="373.3333333333333" y2="320"></line><line x1="373.3333333333333" y1="266.6666666666667" x2="320" y2="320"></line><line x1="373.3333333333333" y1="266.6666666666667" x2="426.66666666666663" y2="320"></line><line x1="426.66666666666663" y1="266.6666666666667" x2="373.3333333333333" y2="320"></line><line x1="426.66666666666663" y1="266.6666666666667" x2="479.99999999999994" y2="320"></line><line x1="479.99999999999994" y1="266.6666666666667" x2="426.66666666666663" y2="320"></line><line x1="479.99999999999994" y1="266.6666666666667" x2="533.3333333333333" y2="320"></line><line x1="533.3333333333333" y1="266.6666666666667" x2="479.99999999999994" y2="320"></line><line x1="533.3333333333333" y1="266.6666666666667" x2="586.6666666666666" y2="320"></line><line x1="586.6666666666666" y1="266.6666666666667" x2="533.3333333333333" y2="320"></line><line x1="586.6666666666666" y1="266.6666666666667" x2="640" y2="320"></line><line x1="640" y1="266.6666666666667" x2="586.6666666666666" y2="320"></line><line x1="640" y1="266.6666666666667" x2="693.3333333333334" y2="320"></line><line x1="693.3333333333334" y1="266.6666666666667" x2="640" y2="320"></line><line x1="693.3333333333334" y1="266.6666666666667" x2="746.6666666666667" y2="320"></line><line x1="746.6666666666667" y1="266.6666666666667" x2="693.3333333333334" y2="320"></line><line x1="746.6666666666667" y1="266.6666666666667" x2="800.0000000000001" y2="320"></line><line x1="800.0000000000001" y1="266.6666666666667" x2="746.6666666666667" y2="320"></line><line x1="800.0000000000001" y1="266.6666666666667" x2="853.3333333333335" y2="320"></line><line x1="853.3333333333335" y1="266.6666666666667" x2="800.0000000000001" y2="320"></line><line x1="0" y1="320" x2="53.333333333333336" y2="373.3333333333333"></line><line x1="53.333333333333336" y1="320" x2="0" y2="373.3333333333333"></line><line x1="53.333333333333336" y1="320" x2="106.66666666666667" y2="373.3333333333333"></line><line x1="106.66666666666667" y1="320" x2="53.333333333333336" y2="373.3333333333333"></line><line x1="106.66666666666667" y1="320" x2="160" y2="373.3333333333333"></line><line x1="160" y1="320" x2="106.66666666666667" y2="373.3333333333333"></line><line x1="160" y1="320" x2="213.33333333333334" y2="373.3333333333333"></line><line x1="213.33333333333334" y1="320" x2="160" y2="373.3333333333333"></line><line x1="213.33333333333334" y1="320" x2="266.6666666666667" y2="373.3333333333333"></line><line x1="266.6666666666667" y1="320" x2="213.33333333333334" y2="373.3333333333333"></line><line x1="266.6666666666667" y1="320" x2="320" y2="373.3333333333333"></line><line x1="320" y1="320" x2="266.6666666666667" y2="373.3333333333333"></line><line x1="320" y1="320" x2="373.3333333333333" y2="373.3333333333333"></line><line x1="373.3333333333333" y1="320" x2="320" y2="373.3333333333333"></line><line x1="373.3333333333333" y1="320" x2="426.66666666666663" y2="373.3333333333333"></line><line x1="426.66666666666663" y1="320" x2="373.3333333333333" y2="373.3333333333333"></line><line x1="426.66666666666663" y1="320" x2="479.99999999999994" y2="373.3333333333333"></line><line x1="479.99999999999994" y1="320" x2="426.66666666666663" y2="373.3333333333333"></line><line x1="479.99999999999994" y1="320" x2="533.3333333333333" y2="373.3333333333333"></line><line x1="533.3333333333333" y1="320" x2="479.99999999999994" y2="373.3333333333333"></line><line x1="533.3333333333333" y1="320" x2="586.6666666666666" y2="373.3333333333333"></line><line x1="586.6666666666666" y1="320" x2="533.3333333333333" y2="373.3333333333333"></line><line x1="586.6666666666666" y1="320" x2="640" y2="373.3333333333333"></line><line x1="640" y1="320" x2="586.6666666666666" y2="373.3333333333333"></line><line x1="640" y1="320" x2="693.3333333333334" y2="373.3333333333333"></line><line x1="693.3333333333334" y1="320" x2="640" y2="373.3333333333333"></line><line x1="693.3333333333334" y1="320" x2="746.6666666666667" y2="373.3333333333333"></line><line x1="746.6666666666667" y1="320" x2="693.3333333333334" y2="373.3333333333333"></line><line x1="746.6666666666667" y1="320" x2="800.0000000000001" y2="373.3333333333333"></line><line x1="800.0000000000001" y1="320" x2="746.6666666666667" y2="373.3333333333333"></line><line x1="800.0000000000001" y1="320" x2="853.3333333333335" y2="373.3333333333333"></line><line x1="853.3333333333335" y1="320" x2="800.0000000000001" y2="373.3333333333333"></line><line x1="0" y1="373.3333333333333" x2="53.333333333333336" y2="426.66666666666663"></line><line x1="53.333333333333336" y1="373.3333333333333" x2="0" y2="426.66666666666663"></line><line x1="53.333333333333336" y1="373.3333333333333" x2="106.66666666666667" y2="426.66666666666663"></line><line x1="106.66666666666667" y1="373.3333333333333" x2="53.333333333333336" y2="426.66666666666663"></line><line x1="106.66666666666667" y1="373.3333333333333" x2="160" y2="426.66666666666663"></line><line x1="160" y1="373.3333333333333" x2="106.66666666666667" y2="426.66666666666663"></line><line x1="160" y1="373.3333333333333" x2="213.33333333333334" y2="426.66666666666663"></line><line x1="213.33333333333334" y1="373.3333333333333" x2="160" y2="426.66666666666663"></line><line x1="213.33333333333334" y1="373.3333333333333" x2="266.6666666666667" y2="426.66666666666663"></line><line x1="266.6666666666667" y1="373.3333333333333" x2="213.33333333333334" y2="426.66666666666663"></line><line x1="266.6666666666667" y1="373.3333333333333" x2="320" y2="426.66666666666663"></line><line x1="320" y1="373.3333333333333" x2="266.6666666666667" y2="426.66666666666663"></line><line x1="320" y1="373.3333333333333" x2="373.3333333333333" y2="426.66666666666663"></line><line x1="373.3333333333333" y1="373.3333333333333" x2="320" y2="426.66666666666663"></line><line x1="373.3333333333333" y1="373.3333333333333" x2="426.66666666666663" y2="426.66666666666663"></line><line x1="426.66666666666663" y1="373.3333333333333" x2="373.3333333333333" y2="426.66666666666663"></line><line x1="426.66666666666663" y1="373.3333333333333" x2="479.99999999999994" y2="426.66666666666663"></line><line x1="479.99999999999994" y1="373.3333333333333" x2="426.66666666666663" y2="426.66666666666663"></line><line x1="479.99999999999994" y1="373.3333333333333" x2="533.3333333333333" y2="426.66666666666663"></line><line x1="533.3333333333333" y1="373.3333333333333" x2="479.99999999999994" y2="426.66666666666663"></line><line x1="533.3333333333333" y1="373.3333333333333" x2="586.6666666666666" y2="426.66666666666663"></line><line x1="586.6666666666666" y1="373.3333333333333" x2="533.3333333333333" y2="426.66666666666663"></line><line x1="586.6666666666666" y1="373.3333333333333" x2="640" y2="426.66666666666663"></line><line x1="640" y1="373.3333333333333" x2="586.6666666666666" y2="426.66666666666663"></line><line x1="640" y1="373.3333333333333" x2="693.3333333333334" y2="426.66666666666663"></line><line x1="693.3333333333334" y1="373.3333333333333" x2="640" y2="426.66666666666663"></line><line x1="693.3333333333334" y1="373.3333333333333" x2="746.6666666666667" y2="426.66666666666663"></line><line x1="746.6666666666667" y1="373.3333333333333" x2="693.3333333333334" y2="426.66666666666663"></line><line x1="746.6666666666667" y1="373.3333333333333" x2="800.0000000000001" y2="426.66666666666663"></line><line x1="800.0000000000001" y1="373.3333333333333" x2="746.6666666666667" y2="426.66666666666663"></line><line x1="800.0000000000001" y1="373.3333333333333" x2="853.3333333333335" y2="426.66666666666663"></line><line x1="853.3333333333335" y1="373.3333333333333" x2="800.0000000000001" y2="426.66666666666663"></line><line x1="0" y1="426.66666666666663" x2="53.333333333333336" y2="479.99999999999994"></line><line x1="53.333333333333336" y1="426.66666666666663" x2="0" y2="479.99999999999994"></line><line x1="53.333333333333336" y1="426.66666666666663" x2="106.66666666666667" y2="479.99999999999994"></line><line x1="106.66666666666667" y1="426.66666666666663" x2="53.333333333333336" y2="479.99999999999994"></line><line x1="106.66666666666667" y1="426.66666666666663" x2="160" y2="479.99999999999994"></line><line x1="160" y1="426.66666666666663" x2="106.66666666666667" y2="479.99999999999994"></line><line x1="160" y1="426.66666666666663" x2="213.33333333333334" y2="479.99999999999994"></line><line x1="213.33333333333334" y1="426.66666666666663" x2="160" y2="479.99999999999994"></line><line x1="213.33333333333334" y1="426.66666666666663" x2="266.6666666666667" y2="479.99999999999994"></line><line x1="266.6666666666667" y1="426.66666666666663" x2="213.33333333333334" y2="479.99999999999994"></line><line x1="266.6666666666667" y1="426.66666666666663" x2="320" y2="479.99999999999994"></line><line x1="320" y1="426.66666666666663" x2="266.6666666666667" y2="479.99999999999994"></line><line x1="320" y1="426.66666666666663" x2="373.3333333333333" y2="479.99999999999994"></line><line x1="373.3333333333333" y1="426.66666666666663" x2="320" y2="479.99999999999994"></line><line x1="373.3333333333333" y1="426.66666666666663" x2="426.66666666666663" y2="479.99999999999994"></line><line x1="426.66666666666663" y1="426.66666666666663" x2="373.3333333333333" y2="479.99999999999994"></line><line x1="426.66666666666663" y1="426.66666666666663" x2="479.99999999999994" y2="479.99999999999994"></line><line x1="479.99999999999994" y1="426.66666666666663" x2="426.66666666666663" y2="479.99999999999994"></line><line x1="479.99999999999994" y1="426.66666666666663" x2="533.3333333333333" y2="479.99999999999994"></line><line x1="533.3333333333333" y1="426.66666666666663" x2="479.99999999999994" y2="479.99999999999994"></line><line x1="533.3333333333333" y1="426.66666666666663" x2="586.6666666666666" y2="479.99999999999994"></line><line x1="586.6666666666666" y1="426.66666666666663" x2="533.3333333333333" y2="479.99999999999994"></line><line x1="586.6666666666666" y1="426.66666666666663" x2="640" y2="479.99999999999994"></line><line x1="640" y1="426.66666666666663" x2="586.6666666666666" y2="479.99999999999994"></line><line x1="640" y1="426.66666666666663" x2="693.3333333333334" y2="479.99999999999994"></line><line x1="693.3333333333334" y1="426.66666666666663" x2="640" y2="479.99999999999994"></line><line x1="693.3333333333334" y1="426.66666666666663" x2="746.6666666666667" y2="479.99999999999994"></line><line x1="746.6666666666667" y1="426.66666666666663" x2="693.3333333333334" y2="479.99999999999994"></line><line x1="746.6666666666667" y1="426.66666666666663" x2="800.0000000000001" y2="479.99999999999994"></line><line x1="800.0000000000001" y1="426.66666666666663" x2="746.6666666666667" y2="479.99999999999994"></line><line x1="800.0000000000001" y1="426.66666666666663" x2="853.3333333333335" y2="479.99999999999994"></line><line x1="853.3333333333335" y1="426.66666666666663" x2="800.0000000000001" y2="479.99999999999994"></line><line x1="0" y1="479.99999999999994" x2="53.333333333333336" y2="533.3333333333333"></line><line x1="53.333333333333336" y1="479.99999999999994" x2="0" y2="533.3333333333333"></line><line x1="53.333333333333336" y1="479.99999999999994" x2="106.66666666666667" y2="533.3333333333333"></line><line x1="106.66666666666667" y1="479.99999999999994" x2="53.333333333333336" y2="533.3333333333333"></line><line x1="106.66666666666667" y1="479.99999999999994" x2="160" y2="533.3333333333333"></line><line x1="160" y1="479.99999999999994" x2="106.66666666666667" y2="533.3333333333333"></line><line x1="160" y1="479.99999999999994" x2="213.33333333333334" y2="533.3333333333333"></line><line x1="213.33333333333334" y1="479.99999999999994" x2="160" y2="533.3333333333333"></line><line x1="213.33333333333334" y1="479.99999999999994" x2="266.6666666666667" y2="533.3333333333333"></line><line x1="266.6666666666667" y1="479.99999999999994" x2="213.33333333333334" y2="533.3333333333333"></line><line x1="266.6666666666667" y1="479.99999999999994" x2="320" y2="533.3333333333333"></line><line x1="320" y1="479.99999999999994" x2="266.6666666666667" y2="533.3333333333333"></line><line x1="320" y1="479.99999999999994" x2="373.3333333333333" y2="533.3333333333333"></line><line x1="373.3333333333333" y1="479.99999999999994" x2="320" y2="533.3333333333333"></line><line x1="373.3333333333333" y1="479.99999999999994" x2="426.66666666666663" y2="533.3333333333333"></line><line x1="426.66666666666663" y1="479.99999999999994" x2="373.3333333333333" y2="533.3333333333333"></line><line x1="426.66666666666663" y1="479.99999999999994" x2="479.99999999999994" y2="533.3333333333333"></line><line x1="479.99999999999994" y1="479.99999999999994" x2="426.66666666666663" y2="533.3333333333333"></line><line x1="479.99999999999994" y1="479.99999999999994" x2="533.3333333333333" y2="533.3333333333333"></line><line x1="533.3333333333333" y1="479.99999999999994" x2="479.99999999999994" y2="533.3333333333333"></line><line x1="533.3333333333333" y1="479.99999999999994" x2="586.6666666666666" y2="533.3333333333333"></line><line x1="586.6666666666666" y1="479.99999999999994" x2="533.3333333333333" y2="533.3333333333333"></line><line x1="586.6666666666666" y1="479.99999999999994" x2="640" y2="533.3333333333333"></line><line x1="640" y1="479.99999999999994" x2="586.6666666666666" y2="533.3333333333333"></line><line x1="640" y1="479.99999999999994" x2="693.3333333333334" y2="533.3333333333333"></line><line x1="693.3333333333334" y1="479.99999999999994" x2="640" y2="533.3333333333333"></line><line x1="693.3333333333334" y1="479.99999999999994" x2="746.6666666666667" y2="533.3333333333333"></line><line x1="746.6666666666667" y1="479.99999999999994" x2="693.3333333333334" y2="533.3333333333333"></line><line x1="746.6666666666667" y1="479.99999999999994" x2="800.0000000000001" y2="533.3333333333333"></line><line x1="800.0000000000001" y1="479.99999999999994" x2="746.6666666666667" y2="533.3333333333333"></line><line x1="800.0000000000001" y1="479.99999999999994" x2="853.3333333333335" y2="533.3333333333333"></line><line x1="853.3333333333335" y1="479.99999999999994" x2="800.0000000000001" y2="533.3333333333333"></line><line x1="0" y1="533.3333333333333" x2="53.333333333333336" y2="586.6666666666666"></line><line x1="53.333333333333336" y1="533.3333333333333" x2="0" y2="586.6666666666666"></line><line x1="53.333333333333336" y1="533.3333333333333" x2="106.66666666666667" y2="586.6666666666666"></line><line x1="106.66666666666667" y1="533.3333333333333" x2="53.333333333333336" y2="586.6666666666666"></line><line x1="106.66666666666667" y1="533.3333333333333" x2="160" y2="586.6666666666666"></line><line x1="160" y1="533.3333333333333" x2="106.66666666666667" y2="586.6666666666666"></line><line x1="160" y1="533.3333333333333" x2="213.33333333333334" y2="586.6666666666666"></line><line x1="213.33333333333334" y1="533.3333333333333" x2="160" y2="586.6666666666666"></line><line x1="213.33333333333334" y1="533.3333333333333" x2="266.6666666666667" y2="586.6666666666666"></line><line x1="266.6666666666667" y1="533.3333333333333" x2="213.33333333333334" y2="586.6666666666666"></line><line x1="266.6666666666667" y1="533.3333333333333" x2="320" y2="586.6666666666666"></line><line x1="320" y1="533.3333333333333" x2="266.6666666666667" y2="586.6666666666666"></line><line x1="320" y1="533.3333333333333" x2="373.3333333333333" y2="586.6666666666666"></line><line x1="373.3333333333333" y1="533.3333333333333" x2="320" y2="586.6666666666666"></line><line x1="373.3333333333333" y1="533.3333333333333" x2="426.66666666666663" y2="586.6666666666666"></line><line x1="426.66666666666663" y1="533.3333333333333" x2="373.3333333333333" y2="586.6666666666666"></line><line x1="426.66666666666663" y1="533.3333333333333" x2="479.99999999999994" y2="586.6666666666666"></line><line x1="479.99999999999994" y1="533.3333333333333" x2="426.66666666666663" y2="586.6666666666666"></line><line x1="479.99999999999994" y1="533.3333333333333" x2="533.3333333333333" y2="586.6666666666666"></line><line x1="533.3333333333333" y1="533.3333333333333" x2="479.99999999999994" y2="586.6666666666666"></line><line x1="533.3333333333333" y1="533.3333333333333" x2="586.6666666666666" y2="586.6666666666666"></line><line x1="586.6666666666666" y1="533.3333333333333" x2="533.3333333333333" y2="586.6666666666666"></line><line x1="586.6666666666666" y1="533.3333333333333" x2="640" y2="586.6666666666666"></line><line x1="640" y1="533.3333333333333" x2="586.6666666666666" y2="586.6666666666666"></line><line x1="640" y1="533.3333333333333" x2="693.3333333333334" y2="586.6666666666666"></line><line x1="693.3333333333334" y1="533.3333333333333" x2="640" y2="586.6666666666666"></line><line x1="693.3333333333334" y1="533.3333333333333" x2="746.6666666666667" y2="586.6666666666666"></line><line x1="746.6666666666667" y1="533.3333333333333" x2="693.3333333333334" y2="586.6666666666666"></line><line x1="746.6666666666667" y1="533.3333333333333" x2="800.0000000000001" y2="586.6666666666666"></line><line x1="800.0000000000001" y1="533.3333333333333" x2="746.6666666666667" y2="586.6666666666666"></line><line x1="800.0000000000001" y1="533.3333333333333" x2="853.3333333333335" y2="586.6666666666666"></line><line x1="853.3333333333335" y1="533.3333333333333" x2="800.0000000000001" y2="586.6666666666666"></line><line x1="0" y1="586.6666666666666" x2="53.333333333333336" y2="640"></line><line x1="53.333333333333336" y1="586.6666666666666" x2="0" y2="640"></line><line x1="53.333333333333336" y1="586.6666666666666" x2="106.66666666666667" y2="640"></line><line x1="106.66666666666667" y1="586.6666666666666" x2="53.333333333333336" y2="640"></line><line x1="106.66666666666667" y1="586.6666666666666" x2="160" y2="640"></line><line x1="160" y1="586.6666666666666" x2="106.66666666666667" y2="640"></line><line x1="160" y1="586.6666666666666" x2="213.33333333333334" y2="640"></line><line x1="213.33333333333334" y1="586.6666666666666" x2="160" y2="640"></line><line x1="213.33333333333334" y1="586.6666666666666" x2="266.6666666666667" y2="640"></line><line x1="266.6666666666667" y1="586.6666666666666" x2="213.33333333333334" y2="640"></line><line x1="266.6666666666667" y1="586.6666666666666" x2="320" y2="640"></line><line x1="320" y1="586.6666666666666" x2="266.6666666666667" y2="640"></line><line x1="320" y1="586.6666666666666" x2="373.3333333333333" y2="640"></line><line x1="373.3333333333333" y1="586.6666666666666" x2="320" y2="640"></line><line x1="373.3333333333333" y1="586.6666666666666" x2="426.66666666666663" y2="640"></line><line x1="426.66666666666663" y1="586.6666666666666" x2="373.3333333333333" y2="640"></line><line x1="426.66666666666663" y1="586.6666666666666" x2="479.99999999999994" y2="640"></line><line x1="479.99999999999994" y1="586.6666666666666" x2="426.66666666666663" y2="640"></line><line x1="479.99999999999994" y1="586.6666666666666" x2="533.3333333333333" y2="640"></line><line x1="533.3333333333333" y1="586.6666666666666" x2="479.99999999999994" y2="640"></line><line x1="533.3333333333333" y1="586.6666666666666" x2="586.6666666666666" y2="640"></line><line x1="586.6666666666666" y1="586.6666666666666" x2="533.3333333333333" y2="640"></line><line x1="586.6666666666666" y1="586.6666666666666" x2="640" y2="640"></line><line x1="640" y1="586.6666666666666" x2="586.6666666666666" y2="640"></line><line x1="640" y1="586.6666666666666" x2="693.3333333333334" y2="640"></line><line x1="693.3333333333334" y1="586.6666666666666" x2="640" y2="640"></line><line x1="693.3333333333334" y1="586.6666666666666" x2="746.6666666666667" y2="640"></line><line x1="746.6666666666667" y1="586.6666666666666" x2="693.3333333333334" y2="640"></line><line x1="746.6666666666667" y1="586.6666666666666" x2="800.0000000000001" y2="640"></line><line x1="800.0000000000001" y1="586.6666666666666" x2="746.6666666666667" y2="640"></line><line x1="800.0000000000001" y1="586.6666666666666" x2="853.3333333333335" y2="640"></line><line x1="853.3333333333335" y1="586.6666666666666" x2="800.0000000000001" y2="640"></line><line x1="0" y1="640" x2="53.333333333333336" y2="693.3333333333334"></line><line x1="53.333333333333336" y1="640" x2="0" y2="693.3333333333334"></line><line x1="53.333333333333336" y1="640" x2="106.66666666666667" y2="693.3333333333334"></line><line x1="106.66666666666667" y1="640" x2="53.333333333333336" y2="693.3333333333334"></line><line x1="106.66666666666667" y1="640" x2="160" y2="693.3333333333334"></line><line x1="160" y1="640" x2="106.66666666666667" y2="693.3333333333334"></line><line x1="160" y1="640" x2="213.33333333333334" y2="693.3333333333334"></line><line x1="213.33333333333334" y1="640" x2="160" y2="693.3333333333334"></line><line x1="213.33333333333334" y1="640" x2="266.6666666666667" y2="693.3333333333334"></line><line x1="266.6666666666667" y1="640" x2="213.33333333333334" y2="693.3333333333334"></line><line x1="266.6666666666667" y1="640" x2="320" y2="693.3333333333334"></line><line x1="320" y1="640" x2="266.6666666666667" y2="693.3333333333334"></line><line x1="320" y1="640" x2="373.3333333333333" y2="693.3333333333334"></line><line x1="373.3333333333333" y1="640" x2="320" y2="693.3333333333334"></line><line x1="373.3333333333333" y1="640" x2="426.66666666666663" y2="693.3333333333334"></line><line x1="426.66666666666663" y1="640" x2="373.3333333333333" y2="693.3333333333334"></line><line x1="426.66666666666663" y1="640" x2="479.99999999999994" y2="693.3333333333334"></line><line x1="479.99999999999994" y1="640" x2="426.66666666666663" y2="693.3333333333334"></line><line x1="479.99999999999994" y1="640" x2="533.3333333333333" y2="693.3333333333334"></line><line x1="533.3333333333333" y1="640" x2="479.99999999999994" y2="693.3333333333334"></line><line x1="533.3333333333333" y1="640" x2="586.6666666666666" y2="693.3333333333334"></line><line x1="586.6666666666666" y1="640" x2="533.3333333333333" y2="693.3333333333334"></line><line x1="586.6666666666666" y1="640" x2="640" y2="693.3333333333334"></line><line x1="640" y1="640" x2="586.6666666666666" y2="693.3333333333334"></line><line x1="640" y1="640" x2="693.3333333333334" y2="693.3333333333334"></line><line x1="693.3333333333334" y1="640" x2="640" y2="693.3333333333334"></line><line x1="693.3333333333334" y1="640" x2="746.6666666666667" y2="693.3333333333334"></line><line x1="746.6666666666667" y1="640" x2="693.3333333333334" y2="693.3333333333334"></line><line x1="746.6666666666667" y1="640" x2="800.0000000000001" y2="693.3333333333334"></line><line x1="800.0000000000001" y1="640" x2="746.6666666666667" y2="693.3333333333334"></line><line x1="800.0000000000001" y1="640" x2="853.3333333333335" y2="693.3333333333334"></line><line x1="853.3333333333335" y1="640" x2="800.0000000000001" y2="693.3333333333334"></line><line x1="0" y1="693.3333333333334" x2="53.333333333333336" y2="746.6666666666667"></line><line x1="53.333333333333336" y1="693.3333333333334" x2="0" y2="746.6666666666667"></line><line x1="53.333333333333336" y1="693.3333333333334" x2="106.66666666666667" y2="746.6666666666667"></line><line x1="106.66666666666667" y1="693.3333333333334" x2="53.333333333333336" y2="746.6666666666667"></line><line x1="106.66666666666667" y1="693.3333333333334" x2="160" y2="746.6666666666667"></line><line x1="160" y1="693.3333333333334" x2="106.66666666666667" y2="746.6666666666667"></line><line x1="160" y1="693.3333333333334" x2="213.33333333333334" y2="746.6666666666667"></line><line x1="213.33333333333334" y1="693.3333333333334" x2="160" y2="746.6666666666667"></line><line x1="213.33333333333334" y1="693.3333333333334" x2="266.6666666666667" y2="746.6666666666667"></line><line x1="266.6666666666667" y1="693.3333333333334" x2="213.33333333333334" y2="746.6666666666667"></line><line x1="266.6666666666667" y1="693.3333333333334" x2="320" y2="746.6666666666667"></line><line x1="320" y1="693.3333333333334" x2="266.6666666666667" y2="746.6666666666667"></line><line x1="320" y1="693.3333333333334" x2="373.3333333333333" y2="746.6666666666667"></line><line x1="373.3333333333333" y1="693.3333333333334" x2="320" y2="746.6666666666667"></line><line x1="373.3333333333333" y1="693.3333333333334" x2="426.66666666666663" y2="746.6666666666667"></line><line x1="426.66666666666663" y1="693.3333333333334" x2="373.3333333333333" y2="746.6666666666667"></line><line x1="426.66666666666663" y1="693.3333333333334" x2="479.99999999999994" y2="746.6666666666667"></line><line x1="479.99999999999994" y1="693.3333333333334" x2="426.66666666666663" y2="746.6666666666667"></line><line x1="479.99999999999994" y1="693.3333333333334" x2="533.3333333333333" y2="746.6666666666667"></line><line x1="533.3333333333333" y1="693.3333333333334" x2="479.99999999999994" y2="746.6666666666667"></line><line x1="533.3333333333333" y1="693.3333333333334" x2="586.6666666666666" y2="746.6666666666667"></line><line x1="586.6666666666666" y1="693.3333333333334" x2="533.3333333333333" y2="746.6666666666667"></line><line x1="586.6666666666666" y1="693.3333333333334" x2="640" y2="746.6666666666667"></line><line x1="640" y1="693.3333333333334" x2="586.6666666666666" y2="746.6666666666667"></line><line x1="640" y1="693.3333333333334" x2="693.3333333333334" y2="746.6666666666667"></line><line x1="693.3333333333334" y1="693.3333333333334" x2="640" y2="746.6666666666667"></line><line x1="693.3333333333334" y1="693.3333333333334" x2="746.6666666666667" y2="746.6666666666667"></line><line x1="746.6666666666667" y1="693.3333333333334" x2="693.3333333333334" y2="746.6666666666667"></line><line x1="746.6666666666667" y1="693.3333333333334" x2="800.0000000000001" y2="746.6666666666667"></line><line x1="800.0000000000001" y1="693.3333333333334" x2="746.6666666666667" y2="746.6666666666667"></line><line x1="800.0000000000001" y1="693.3333333333334" x2="853.3333333333335" y2="746.6666666666667"></line><line x1="853.3333333333335" y1="693.3333333333334" x2="800.0000000000001" y2="746.6666666666667"></line><line x1="0" y1="746.6666666666667" x2="53.333333333333336" y2="800.0000000000001"></line><line x1="53.333333333333336" y1="746.6666666666667" x2="0" y2="800.0000000000001"></line><line x1="53.333333333333336" y1="746.6666666666667" x2="106.66666666666667" y2="800.0000000000001"></line><line x1="106.66666666666667" y1="746.6666666666667" x2="53.333333333333336" y2="800.0000000000001"></line><line x1="106.66666666666667" y1="746.6666666666667" x2="160" y2="800.0000000000001"></line><line x1="160" y1="746.6666666666667" x2="106.66666666666667" y2="800.0000000000001"></line><line x1="160" y1="746.6666666666667" x2="213.33333333333334" y2="800.0000000000001"></line><line x1="213.33333333333334" y1="746.6666666666667" x2="160" y2="800.0000000000001"></line><line x1="213.33333333333334" y1="746.6666666666667" x2="266.6666666666667" y2="800.0000000000001"></line><line x1="266.6666666666667" y1="746.6666666666667" x2="213.33333333333334" y2="800.0000000000001"></line><line x1="266.6666666666667" y1="746.6666666666667" x2="320" y2="800.0000000000001"></line><line x1="320" y1="746.6666666666667" x2="266.6666666666667" y2="800.0000000000001"></line><line x1="320" y1="746.6666666666667" x2="373.3333333333333" y2="800.0000000000001"></line><line x1="373.3333333333333" y1="746.6666666666667" x2="320" y2="800.0000000000001"></line><line x1="373.3333333333333" y1="746.6666666666667" x2="426.66666666666663" y2="800.0000000000001"></line><line x1="426.66666666666663" y1="746.6666666666667" x2="373.3333333333333" y2="800.0000000000001"></line><line x1="426.66666666666663" y1="746.6666666666667" x2="479.99999999999994" y2="800.0000000000001"></line><line x1="479.99999999999994" y1="746.6666666666667" x2="426.66666666666663" y2="800.0000000000001"></line><line x1="479.99999999999994" y1="746.6666666666667" x2="533.3333333333333" y2="800.0000000000001"></line><line x1="533.3333333333333" y1="746.6666666666667" x2="479.99999999999994" y2="800.0000000000001"></line><line x1="533.3333333333333" y1="746.6666666666667" x2="586.6666666666666" y2="800.0000000000001"></line><line x1="586.6666666666666" y1="746.6666666666667" x2="533.3333333333333" y2="800.0000000000001"></line><line x1="586.6666666666666" y1="746.6666666666667" x2="640" y2="800.0000000000001"></line><line x1="640" y1="746.6666666666667" x2="586.6666666666666" y2="800.0000000000001"></line><line x1="640" y1="746.6666666666667" x2="693.3333333333334" y2="800.0000000000001"></line><line x1="693.3333333333334" y1="746.6666666666667" x2="640" y2="800.0000000000001"></line><line x1="693.3333333333334" y1="746.6666666666667" x2="746.6666666666667" y2="800.0000000000001"></line><line x1="746.6666666666667" y1="746.6666666666667" x2="693.3333333333334" y2="800.0000000000001"></line><line x1="746.6666666666667" y1="746.6666666666667" x2="800.0000000000001" y2="800.0000000000001"></line><line x1="800.0000000000001" y1="746.6666666666667" x2="746.6666666666667" y2="800.0000000000001"></line><line x1="800.0000000000001" y1="746.6666666666667" x2="853.3333333333335" y2="800.0000000000001"></line><line x1="853.3333333333335" y1="746.6666666666667" x2="800.0000000000001" y2="800.0000000000001"></line><line x1="0" y1="800.0000000000001" x2="53.333333333333336" y2="853.3333333333335"></line><line x1="53.333333333333336" y1="800.0000000000001" x2="0" y2="853.3333333333335"></line><line x1="53.333333333333336" y1="800.0000000000001" x2="106.66666666666667" y2="853.3333333333335"></line><line x1="106.66666666666667" y1="800.0000000000001" x2="53.333333333333336" y2="853.3333333333335"></line><line x1="106.66666666666667" y1="800.0000000000001" x2="160" y2="853.3333333333335"></line><line x1="160" y1="800.0000000000001" x2="106.66666666666667" y2="853.3333333333335"></line><line x1="160" y1="800.0000000000001" x2="213.33333333333334" y2="853.3333333333335"></line><line x1="213.33333333333334" y1="800.0000000000001" x2="160" y2="853.3333333333335"></line><line x1="213.33333333333334" y1="800.0000000000001" x2="266.6666666666667" y2="853.3333333333335"></line><line x1="266.6666666666667" y1="800.0000000000001" x2="213.33333333333334" y2="853.3333333333335"></line><line x1="266.6666666666667" y1="800.0000000000001" x2="320" y2="853.3333333333335"></line><line x1="320" y1="800.0000000000001" x2="266.6666666666667" y2="853.3333333333335"></line><line x1="320" y1="800.0000000000001" x2="373.3333333333333" y2="853.3333333333335"></line><line x1="373.3333333333333" y1="800.0000000000001" x2="320" y2="853.3333333333335"></line><line x1="373.3333333333333" y1="800.0000000000001" x2="426.66666666666663" y2="853.3333333333335"></line><line x1="426.66666666666663" y1="800.0000000000001" x2="373.3333333333333" y2="853.3333333333335"></line><line x1="426.66666666666663" y1="800.0000000000001" x2="479.99999999999994" y2="853.3333333333335"></line><line x1="479.99999999999994" y1="800.0000000000001" x2="426.66666666666663" y2="853.3333333333335"></line><line x1="479.99999999999994" y1="800.0000000000001" x2="533.3333333333333" y2="853.3333333333335"></line><line x1="533.3333333333333" y1="800.0000000000001" x2="479.99999999999994" y2="853.3333333333335"></line><line x1="533.3333333333333" y1="800.0000000000001" x2="586.6666666666666" y2="853.3333333333335"></line><line x1="586.6666666666666" y1="800.0000000000001" x2="533.3333333333333" y2="853.3333333333335"></line><line x1="586.6666666666666" y1="800.0000000000001" x2="640" y2="853.3333333333335"></line><line x1="640" y1="800.0000000000001" x2="586.6666666666666" y2="853.3333333333335"></line><line x1="640" y1="800.0000000000001" x2="693.3333333333334" y2="853.3333333333335"></line><line x1="693.3333333333334" y1="800.0000000000001" x2="640" y2="853.3333333333335"></line><line x1="693.3333333333334" y1="800.0000000000001" x2="746.6666666666667" y2="853.3333333333335"></line><line x1="746.6666666666667" y1="800.0000000000001" x2="693.3333333333334" y2="853.3333333333335"></line><line x1="746.6666666666667" y1="800.0000000000001" x2="800.0000000000001" y2="853.3333333333335"></line><line x1="800.0000000000001" y1="800.0000000000001" x2="746.6666666666667" y2="853.3333333333335"></line><line x1="800.0000000000001" y1="800.0000000000001" x2="853.3333333333335" y2="853.3333333333335"></line><line x1="853.3333333333335" y1="800.0000000000001" x2="800.0000000000001" y2="853.3333333333335"></line></g></svg>