<svg xmlns="http://www.w3.org/2000/svg" version="1.1" xmlns:xlink="http://www.w3.org/1999/xlink" xmlns:svgjs="http://svgjs.dev/svgjs" viewBox="0 0 800 800" opacity="0.15" width="800" height="800"><g stroke-width="1.5" stroke="hsl(46, 97%, 65%)" fill="none"><line x1="0" y1="0" x2="133.33333333333334" y2="133.33333333333334"></line><line x1="133.33333333333334" y1="0" x2="0" y2="133.33333333333334"></line><line x1="133.33333333333334" y1="0" x2="266.6666666666667" y2="133.33333333333334"></line><line x1="266.6666666666667" y1="0" x2="133.33333333333334" y2="133.33333333333334"></line><line x1="266.6666666666667" y1="0" x2="400" y2="133.33333333333334"></line><line x1="400" y1="0" x2="266.6666666666667" y2="133.33333333333334"></line><line x1="400" y1="0" x2="533.3333333333334" y2="133.33333333333334"></line><line x1="533.3333333333334" y1="0" x2="400" y2="133.33333333333334"></line><line x1="533.3333333333334" y1="0" x2="666.6666666666667" y2="133.33333333333334"></line><line x1="666.6666666666667" y1="0" x2="533.3333333333334" y2="133.33333333333334"></line><line x1="666.6666666666667" y1="0" x2="800.0000000000001" y2="133.33333333333334"></line><line x1="800.0000000000001" y1="0" x2="666.6666666666667" y2="133.33333333333334"></line><line x1="800.0000000000001" y1="0" x2="933.3333333333335" y2="133.33333333333334"></line><line x1="933.3333333333335" y1="0" x2="800.0000000000001" y2="133.33333333333334"></line><line x1="0" y1="133.33333333333334" x2="133.33333333333334" y2="266.6666666666667"></line><line x1="133.33333333333334" y1="133.33333333333334" x2="0" y2="266.6666666666667"></line><line x1="133.33333333333334" y1="133.33333333333334" x2="266.6666666666667" y2="266.6666666666667"></line><line x1="266.6666666666667" y1="133.33333333333334" x2="133.33333333333334" y2="266.6666666666667"></line><line x1="266.6666666666667" y1="133.33333333333334" x2="400" y2="266.6666666666667"></line><line x1="400" y1="133.33333333333334" x2="266.6666666666667" y2="266.6666666666667"></line><line x1="400" y1="133.33333333333334" x2="533.3333333333334" y2="266.6666666666667"></line><line x1="533.3333333333334" y1="133.33333333333334" x2="400" y2="266.6666666666667"></line><line x1="533.3333333333334" y1="133.33333333333334" x2="666.6666666666667" y2="266.6666666666667"></line><line x1="666.6666666666667" y1="133.33333333333334" x2="533.3333333333334" y2="266.6666666666667"></line><line x1="666.6666666666667" y1="133.33333333333334" x2="800.0000000000001" y2="266.6666666666667"></line><line x1="800.0000000000001" y1="133.33333333333334" x2="666.6666666666667" y2="266.6666666666667"></line><line x1="800.0000000000001" y1="133.33333333333334" x2="933.3333333333335" y2="266.6666666666667"></line><line x1="933.3333333333335" y1="133.33333333333334" x2="800.0000000000001" y2="266.6666666666667"></line><line x1="0" y1="266.6666666666667" x2="133.33333333333334" y2="400"></line><line x1="133.33333333333334" y1="266.6666666666667" x2="0" y2="400"></line><line x1="133.33333333333334" y1="266.6666666666667" x2="266.6666666666667" y2="400"></line><line x1="266.6666666666667" y1="266.6666666666667" x2="133.33333333333334" y2="400"></line><line x1="266.6666666666667" y1="266.6666666666667" x2="400" y2="400"></line><line x1="400" y1="266.6666666666667" x2="266.6666666666667" y2="400"></line><line x1="400" y1="266.6666666666667" x2="533.3333333333334" y2="400"></line><line x1="533.3333333333334" y1="266.6666666666667" x2="400" y2="400"></line><line x1="533.3333333333334" y1="266.6666666666667" x2="666.6666666666667" y2="400"></line><line x1="666.6666666666667" y1="266.6666666666667" x2="533.3333333333334" y2="400"></line><line x1="666.6666666666667" y1="266.6666666666667" x2="800.0000000000001" y2="400"></line><line x1="800.0000000000001" y1="266.6666666666667" x2="666.6666666666667" y2="400"></line><line x1="800.0000000000001" y1="266.6666666666667" x2="933.3333333333335" y2="400"></line><line x1="933.3333333333335" y1="266.6666666666667" x2="800.0000000000001" y2="400"></line><line x1="0" y1="400" x2="133.33333333333334" y2="533.3333333333334"></line><line x1="133.33333333333334" y1="400" x2="0" y2="533.3333333333334"></line><line x1="133.33333333333334" y1="400" x2="266.6666666666667" y2="533.3333333333334"></line><line x1="266.6666666666667" y1="400" x2="133.33333333333334" y2="533.3333333333334"></line><line x1="266.6666666666667" y1="400" x2="400" y2="533.3333333333334"></line><line x1="400" y1="400" x2="266.6666666666667" y2="533.3333333333334"></line><line x1="400" y1="400" x2="533.3333333333334" y2="533.3333333333334"></line><line x1="533.3333333333334" y1="400" x2="400" y2="533.3333333333334"></line><line x1="533.3333333333334" y1="400" x2="666.6666666666667" y2="533.3333333333334"></line><line x1="666.6666666666667" y1="400" x2="533.3333333333334" y2="533.3333333333334"></line><line x1="666.6666666666667" y1="400" x2="800.0000000000001" y2="533.3333333333334"></line><line x1="800.0000000000001" y1="400" x2="666.6666666666667" y2="533.3333333333334"></line><line x1="800.0000000000001" y1="400" x2="933.3333333333335" y2="533.3333333333334"></line><line x1="933.3333333333335" y1="400" x2="800.0000000000001" y2="533.3333333333334"></line><line x1="0" y1="533.3333333333334" x2="133.33333333333334" y2="666.6666666666667"></line><line x1="133.33333333333334" y1="533.3333333333334" x2="0" y2="666.6666666666667"></line><line x1="133.33333333333334" y1="533.3333333333334" x2="266.6666666666667" y2="666.6666666666667"></line><line x1="266.6666666666667" y1="533.3333333333334" x2="133.33333333333334" y2="666.6666666666667"></line><line x1="266.6666666666667" y1="533.3333333333334" x2="400" y2="666.6666666666667"></line><line x1="400" y1="533.3333333333334" x2="266.6666666666667" y2="666.6666666666667"></line><line x1="400" y1="533.3333333333334" x2="533.3333333333334" y2="666.6666666666667"></line><line x1="533.3333333333334" y1="533.3333333333334" x2="400" y2="666.6666666666667"></line><line x1="533.3333333333334" y1="533.3333333333334" x2="666.6666666666667" y2="666.6666666666667"></line><line x1="666.6666666666667" y1="533.3333333333334" x2="533.3333333333334" y2="666.6666666666667"></line><line x1="666.6666666666667" y1="533.3333333333334" x2="800.0000000000001" y2="666.6666666666667"></line><line x1="800.0000000000001" y1="533.3333333333334" x2="666.6666666666667" y2="666.6666666666667"></line><line x1="800.0000000000001" y1="533.3333333333334" x2="933.3333333333335" y2="666.6666666666667"></line><line x1="933.3333333333335" y1="533.3333333333334" x2="800.0000000000001" y2="666.6666666666667"></line><line x1="0" y1="666.6666666666667" x2="133.33333333333334" y2="800.0000000000001"></line><line x1="133.33333333333334" y1="666.6666666666667" x2="0" y2="800.0000000000001"></line><line x1="133.33333333333334" y1="666.6666666666667" x2="266.6666666666667" y2="800.0000000000001"></line><line x1="266.6666666666667" y1="666.6666666666667" x2="133.33333333333334" y2="800.0000000000001"></line><line x1="266.6666666666667" y1="666.6666666666667" x2="400" y2="800.0000000000001"></line><line x1="400" y1="666.6666666666667" x2="266.6666666666667" y2="800.0000000000001"></line><line x1="400" y1="666.6666666666667" x2="533.3333333333334" y2="800.0000000000001"></line><line x1="533.3333333333334" y1="666.6666666666667" x2="400" y2="800.0000000000001"></line><line x1="533.3333333333334" y1="666.6666666666667" x2="666.6666666666667" y2="800.0000000000001"></line><line x1="666.6666666666667" y1="666.6666666666667" x2="533.3333333333334" y2="800.0000000000001"></line><line x1="666.6666666666667" y1="666.6666666666667" x2="800.0000000000001" y2="800.0000000000001"></line><line x1="800.0000000000001" y1="666.6666666666667" x2="666.6666666666667" y2="800.0000000000001"></line><line x1="800.0000000000001" y1="666.6666666666667" x2="933.3333333333335" y2="800.0000000000001"></line><line x1="933.3333333333335" y1="666.6666666666667" x2="800.0000000000001" y2="800.0000000000001"></line><line x1="0" y1="800.0000000000001" x2="133.33333333333334" y2="933.3333333333335"></line><line x1="133.33333333333334" y1="800.0000000000001" x2="0" y2="933.3333333333335"></line><line x1="133.33333333333334" y1="800.0000000000001" x2="266.6666666666667" y2="933.3333333333335"></line><line x1="266.6666666666667" y1="800.0000000000001" x2="133.33333333333334" y2="933.3333333333335"></line><line x1="266.6666666666667" y1="800.0000000000001" x2="400" y2="933.3333333333335"></line><line x1="400" y1="800.0000000000001" x2="266.6666666666667" y2="933.3333333333335"></line><line x1="400" y1="800.0000000000001" x2="533.3333333333334" y2="933.3333333333335"></line><line x1="533.3333333333334" y1="800.0000000000001" x2="400" y2="933.3333333333335"></line><line x1="533.3333333333334" y1="800.0000000000001" x2="666.6666666666667" y2="933.3333333333335"></line><line x1="666.6666666666667" y1="800.0000000000001" x2="533.3333333333334" y2="933.3333333333335"></line><line x1="666.6666666666667" y1="800.0000000000001" x2="800.0000000000001" y2="933.3333333333335"></line><line x1="800.0000000000001" y1="800.0000000000001" x2="666.6666666666667" y2="933.3333333333335"></line><line x1="800.0000000000001" y1="800.0000000000001" x2="933.3333333333335" y2="933.3333333333335"></line><line x1="933.3333333333335" y1="800.0000000000001" x2="800.0000000000001" y2="933.3333333333335"></line></g></svg>